<svg xmlns="http://www.w3.org/2000/svg" font-family="-apple-system, BlinkMacSystemFont, 'Segoe UI', Helvetica, Arial, sans-serif" letter-spacing=".5" viewBox="0 0 460 331"><rect width="460" height="331" fill="#0D0D0D" rx="8"/><path fill="#0D0D0D" d="M0 20h36.8v291H0V20Z"/><path fill="#7D7D7D" fill-rule="evenodd" d="M15.625 28h6.75l3.375 3.375v9.075l-.975 1.05H21.25v3.45L20.2 46h-9.075L10 44.95V33.625l1.125-1.125H14.5v-3.375L15.625 28Zm5.625 1.125V32.5h3.375v7.875h-9v-11.25h5.625Zm2.925 2.25-1.8-1.8v1.8h1.8Zm-9.675 2.25v6.825l1.125 1.05h4.5v3.375h-9v-11.25H14.5Z" clip-rule="evenodd"/><path fill="rgba(125, 125, 125, 0.6)" fill-rule="evenodd" d="M25.8159 70.251c0 2.7867-2.2594 5.0461-5.046 5.0461-2.862 0-5.1214-2.2594-5.1214-5.0461 0-2.8619 2.2594-5.1213 5.1214-5.1213 2.7866 0 5.046 2.2594 5.046 5.1213Zm1.1297 0c0 3.3892-2.7866 6.1758-6.1757 6.1758-1.5063 0-2.7866-.5272-3.841-1.3557L10.8285 82 10 81.2469l6.1004-6.9289c-.9791-1.0544-1.5816-2.5607-1.5816-4.067 0-3.4644 2.7866-6.251 6.2511-6.251 3.3891 0 6.1757 2.7866 6.1757 6.251Z" clip-rule="evenodd"/><path fill="rgba(125, 125, 125, 0.6)" d="M24.5187 106.199c0-.523-.1494-1.045-.3735-1.494-.2987-.448-.6722-.821-1.195-1.045-.4481-.224-.9709-.374-1.4938-.299-.5228.075-.9709.224-1.4191.523-.3734.299-.7468.747-.8962 1.195-.2241.523-.2988 1.045-.1494 1.568.0747.523.2988.971.5975 1.345.3735.373.8216.672 1.3444.821-.2241.374-.4481.672-.8216.897-.3734.224-.7469.373-1.195.373h-2.2407c-.8215 0-1.6431.299-2.2406.896v-5.452c.6722-.149 1.2697-.523 1.7178-1.046.3735-.597.5975-1.269.5228-1.942-.0746-.746-.3734-1.344-.8962-1.792-.5228-.523-1.195-.747-1.8672-.747-.7469 0-1.4191.224-1.9419.747-.5229.448-.8216 1.046-.8963 1.792-.0747.673.1494 1.345.5228 1.942.4481.523 1.0457.897 1.7179 1.046v6.871c-.6722.075-1.2698.448-1.7179 1.046-.4481.523-.5975 1.195-.5975 1.942.0747.672.3734 1.27.8963 1.792.4481.449 1.1203.747 1.7925.822.6722 0 1.3444-.224 1.9419-.598.5228-.448.8963-1.045.971-1.717.1493-.747 0-1.419-.3735-2.017-.2987-.597-.8962-1.046-1.5684-1.195.224-.373.5228-.672.8215-.896.3735-.224.7469-.374 1.195-.374h2.2407c.6722 0 1.3444-.224 1.9419-.597.5975-.448.971-1.046 1.195-1.643.6722-.15 1.3444-.448 1.7926-.971.4481-.523.6722-1.121.6722-1.793Zm-12.3237-3.361c0-.373.0747-.672.2988-.971.1494-.299.4481-.523.7469-.597.2987-.15.6722-.15.9709-.15.2988.075.5975.224.8216.523.2988.224.4481.523.5228.822 0 .298 0 .672-.1494.971-.0746.298-.2987.597-.5975.747-.2987.224-.5975.298-.8962.298-.4482 0-.8963-.149-1.1951-.522-.3734-.299-.5228-.747-.5228-1.121Zm3.361 12.324c0 .299-.0747.597-.2987.896-.1494.299-.4482.523-.7469.598-.2988.149-.6722.149-.971.149-.2987-.075-.5975-.224-.8216-.523-.2987-.224-.4481-.523-.5228-.821 0-.299 0-.673.1494-.971.0747-.299.2988-.598.5975-.747.2988-.224.5975-.299.971-.299.3734 0 .8215.149 1.1203.523.3734.299.5228.747.5228 1.195Zm6.1992-7.32c-.3735 0-.6722-.074-.971-.298-.2987-.15-.5228-.449-.5975-.747-.1494-.299-.1494-.673-.1494-.971.0747-.299.2241-.598.5229-.822.224-.299.5228-.448.8215-.523.2988 0 .6722 0 .971.15.2988.074.5975.298.7469.597.2241.299.2987.598.2987.971 0 .374-.1493.822-.5228 1.121-.2987.373-.7469.522-1.1203.522ZM17.175 146.125l-.975.975c-.15-.6-.45-1.125-.975-1.5-.525-.375-1.125-.6-1.725-.6-.6 0-1.2.225-1.725.6-.525.375-.825.9-.975 1.5l-.975-.975-.825.825 1.275 1.275-.15.15v1.125H9v1.125h1.125v.075c.075.375.15.675.3 1.05L9 153.175l.825.825 1.2-1.2c.3.375.675.675 1.125.825.375.225.9.375 1.35.375.45 0 .975-.15 1.35-.375.45-.15.825-.45 1.125-.825l1.2 1.2.825-.825-1.425-1.425c.15-.375.225-.75.3-1.05v-.075H18V149.5h-1.125v-1.125l-.15-.15L18 146.95l-.825-.825Zm-3.675 0c.45 0 .9.15 1.2.525.3.3.525.75.525 1.2H11.85c0-.45.15-.9.45-1.2.3-.375.75-.525 1.2-.525Zm2.25 4.5c-.075.6-.3 1.125-.75 1.5-.375.45-.9.675-1.5.75-.6-.075-1.125-.3-1.5-.75-.45-.375-.675-.9-.75-1.5v-1.65h4.5v1.65Zm11.1-7.425v.975l-7.725 4.875v-1.35l6.375-4.05-9.75-6.15v7.125c-.375-.3-.75-.45-1.125-.6v-7.575l.825-.45 11.4 7.2ZM19.125 173.125 20.25 172h5.625L27 173.125v5.625l-1.125 1.125H20.25l-1.125-1.125v-5.625Zm1.125 0v5.625h5.625v-5.625H20.25ZM9 183.25v-6.75l1.125-1.125h5.625l1.125 1.125v5.625H22.5l1.125 1.125v5.625L22.5 190H10.125L9 188.875v-5.625Zm6.75-1.125V176.5h-5.625v5.625h5.625Zm0 1.125h-5.625v5.625h5.625v-5.625Zm1.125 5.625H22.5v-5.625h-5.625v5.625Z"/><path fill="#0D0D0D" d="M36.8 20H460v28H36.8z"/><svg width="116" height="28" x="36.8" y="20"><path fill="#0D0D0D" d="M0 0h116v28H0z"/><text x="50%" y="50%" fill="#FFF" dominant-baseline="middle" font-size="11" text-anchor="middle"><tspan>main.js</tspan></text></svg><path fill="#0D0D0D" d="M36.8 47H460v1H36.8z"/><path fill="#131313" d="M36.8 47h116v1h-116z"/><path fill="#0D0D0D" d="M0 311h460v12c0 4.418-3.582 8-8 8H8.00001C3.58173 331 0 327.418 0 323v-12Z"/><path fill="#7E7E7E" fill-rule="evenodd" d="M14.4246 316.011c1.139.071 2.2068.64 2.9899 1.423.9254.997 1.4237 2.207 1.4237 3.631 0 1.139-.4271 2.207-1.139 3.132-.7119.854-1.7085 1.495-2.8475 1.709-1.139.213-2.278.071-3.2746-.499-.9966-.569-1.7797-1.423-2.20683-2.491-.42712-1.068-.49831-2.278-.14237-3.346.35594-1.139.9966-2.064 1.9932-2.705.9255-.641 2.0645-.926 3.2035-.854Zm.3559 9.183c.9255-.214 1.7797-.712 2.4204-1.495.5695-.783.9254-1.709.8542-2.705 0-1.139-.4271-2.278-1.2101-3.061-.7119-.712-1.5662-1.139-2.5628-1.21-.9254-.072-1.9221.142-2.7051.711-.7831.57-1.3526 1.353-1.63733 2.35-.28475.925-.28475 1.922.14233 2.847.4272.926 1.0679 1.637 1.9221 2.136.8543.498 1.8509.64 2.7763.427Zm-.8542-4.556 1.7085-1.78.4983.498-1.7085 1.78 1.7085 1.78-.4983.498-1.7085-1.78-1.7085 1.78-.4983-.498 1.7085-1.78-1.7085-1.78.4983-.498 1.7085 1.78Z" clip-rule="evenodd"/><text fill="#7E7E7E" font-size="10"><tspan x="46.1748" y="325">0</tspan></text><path fill="#7E7E7E" fill-rule="evenodd" d="M37.0462 316h.6769l5.0307 9.431-.3384.569H32.3385L32 325.431 37.0462 316Zm.3384.985-4.4 8.246h8.7846l-4.3846-8.246Zm.4808 7.477v-.77h-.9616v.77h.9616Zm-.9616-1.539v-3.077h.9616v3.077h-.9616Z" clip-rule="evenodd"/><text fill="#7E7E7E" font-size="10"><tspan x="21.9787" y="325">0</tspan></text><text x="100%" y="324" fill="#7E7E7E" font-size="10" text-anchor="end" transform="translate(-9)">JavaScript</text><path fill="#0D0D0D" d="M0 8c0-4.41828 3.58172-8 8-8h444c4.418 0 8 3.58172 8 8v12H0V8Z"/><path fill="#0D0D0D" d="M0 19h460v1H0v-1Z"/><text x="50%" y="14" fill="#CCC" font-size="11" text-anchor="middle">Themin - Cyberpunk 2077</text><text fill="#BBB" font-family="'SFMono-Regular',Consolas,'Liberation Mono',Menlo,Courier,monospace" font-size="12.5" letter-spacing=".2"><tspan x="50" y="58" dy="12.5"><tspan fill="#9370DB">const</tspan><tspan> </tspan><tspan fill="#868690">btn</tspan><tspan> </tspan><tspan fill="#9370DB">=</tspan><tspan> </tspan><tspan fill="#868690">document</tspan><tspan fill="#9370DB">.</tspan><tspan fill="#FDF500">getElementById</tspan><tspan fill="#868690">(</tspan><tspan fill="#9898A6">&apos;btn&apos;</tspan><tspan fill="#868690">)</tspan><tspan fill="#575861">;</tspan></tspan><tspan x="50" y="75" dy="12.5"><tspan fill="#9370DB">let</tspan><tspan> </tspan><tspan fill="#868690">count</tspan><tspan> </tspan><tspan fill="#9370DB">=</tspan><tspan> </tspan><tspan fill="#FDF500">0</tspan><tspan fill="#575861">;</tspan></tspan><tspan x="50" y="92" dy="12.5"/><tspan x="50" y="109" dy="12.5"><tspan fill="#9370DB">function</tspan><tspan> </tspan><tspan fill="#FDF500">render</tspan><tspan fill="#575861">()</tspan><tspan> </tspan><tspan fill="#575861">{</tspan></tspan><tspan x="50" y="126" dy="12.5"><tspan>  </tspan><tspan fill="#868690">btn</tspan><tspan fill="#9370DB">.</tspan><tspan fill="#868690">innerText</tspan><tspan> </tspan><tspan fill="#9370DB">=</tspan><tspan> </tspan><tspan fill="#9898A6">`Count: </tspan><tspan fill="#E455AE">${</tspan><tspan fill="#868690">count</tspan><tspan fill="#E455AE">}</tspan><tspan fill="#9898A6">`</tspan><tspan fill="#575861">;</tspan></tspan><tspan x="50" y="143" dy="12.5"><tspan fill="#575861">}</tspan></tspan><tspan x="50" y="160" dy="12.5"/><tspan x="50" y="177" dy="12.5"><tspan fill="#868690">btn</tspan><tspan fill="#9370DB">.</tspan><tspan fill="#FDF500">addEventListener</tspan><tspan fill="#868690">(</tspan><tspan fill="#9898A6">&apos;click&apos;</tspan><tspan fill="#575861">,</tspan><tspan> </tspan><tspan fill="#575861">()</tspan><tspan> </tspan><tspan fill="#9370DB">=&gt;</tspan><tspan> </tspan><tspan fill="#575861">{</tspan></tspan><tspan x="50" y="194" dy="12.5"><tspan fill="#575861">  </tspan><tspan fill="#575861" font-style="italic">//</tspan><tspan fill="#43444D" font-style="italic"> Count from 1 to 10.</tspan></tspan><tspan x="50" y="211" dy="12.5"><tspan>  </tspan><tspan fill="#9370DB">if</tspan><tspan> </tspan><tspan fill="#868690">(count</tspan><tspan> </tspan><tspan fill="#9370DB">&lt;</tspan><tspan> </tspan><tspan fill="#FDF500">10</tspan><tspan fill="#868690">)</tspan><tspan> </tspan><tspan fill="#575861">{</tspan></tspan><tspan x="50" y="228" dy="12.5"><tspan>    </tspan><tspan fill="#868690">count</tspan><tspan> </tspan><tspan fill="#9370DB">+=</tspan><tspan> </tspan><tspan fill="#FDF500">1</tspan><tspan fill="#575861">;</tspan></tspan><tspan x="50" y="245" dy="12.5"><tspan>    </tspan><tspan fill="#FDF500">render</tspan><tspan fill="#868690">()</tspan><tspan fill="#575861">;</tspan></tspan><tspan x="50" y="262" dy="12.5"><tspan>  </tspan><tspan fill="#575861">}</tspan></tspan><tspan x="50" y="279" dy="12.5"><tspan fill="#575861">}</tspan><tspan fill="#868690">)</tspan><tspan fill="#575861">;</tspan></tspan><tspan x="50" y="296" dy="12.5"/></text></svg>